<?xml version="1.0" encoding="utf-8"?>
<!-- Generator: Adobe Illustrator 17.0.0, SVG Export Plug-In . SVG Version: 6.00 Build 0)  -->
<!DOCTYPE svg PUBLIC "-//W3C//DTD SVG 1.1//EN" "http://www.w3.org/Graphics/SVG/1.1/DTD/svg11.dtd">
<svg version="1.1" id="Group" xmlns="http://www.w3.org/2000/svg" xmlns:xlink="http://www.w3.org/1999/xlink" x="0px" y="0px"
	 width="960px" height="400px" viewBox="0 0 960 400" enable-background="new 0 0 960 400" xml:space="preserve">
<g id="Background">
	
		<linearGradient id="SVGID_1_" gradientUnits="userSpaceOnUse" x1="480" y1="154" x2="480" y2="401.002" gradientTransform="matrix(1 0 0 -1 0 401)">
		<stop  offset="0" style="stop-color:#FFFFFF"/>
		<stop  offset="1" style="stop-color:#6AA5FF"/>
	</linearGradient>
	<rect fill="url(#SVGID_1_)" width="960" height="261"/>
	<ellipse fill="#AAC4E2" cx="530.353" cy="272.767" rx="64.353" ry="74.9"/>
	<ellipse fill="#AAC4E2" cx="605.246" cy="274.315" rx="64.353" ry="97.685"/>
	<ellipse fill="#AAC4E2" cx="691.789" cy="267.315" rx="45.491" ry="103.685"/>
	<ellipse fill="#AAC4E2" cx="768.902" cy="252.114" rx="64.353" ry="72.114"/>
	<ellipse fill="#AAC4E2" cx="934.15" cy="240.929" rx="64.353" ry="64.299"/>
	<ellipse fill="#AAC4E2" cx="25.353" cy="289.49" rx="64.353" ry="75.624"/>
	<ellipse fill="#AAC4E2" cx="182.246" cy="300.315" rx="64.353" ry="97.685"/>
	<ellipse fill="#AAC4E2" cx="98.789" cy="282.315" rx="45.491" ry="103.685"/>
	<ellipse fill="#AAC4E2" cx="263.902" cy="272.114" rx="64.353" ry="72.114"/>
	<ellipse fill="#AAC4E2" cx="344.102" cy="277.433" rx="64.353" ry="107.567"/>
	<ellipse fill="#AAC4E2" cx="410.25" cy="291.433" rx="51.148" ry="107.567"/>
	<ellipse fill="#AAC4E2" cx="479.15" cy="246.929" rx="64.353" ry="64.299"/>
	<g>
		
			<linearGradient id="SVGID_2_" gradientUnits="userSpaceOnUse" x1="267.4731" y1="143.7151" x2="267.2823" y2="120.0544" gradientTransform="matrix(1 0 0 -1 0 401)">
			<stop  offset="0" style="stop-color:#FFFFFF"/>
			<stop  offset="1" style="stop-color:#94CEFF"/>
		</linearGradient>
		<path fill="url(#SVGID_2_)" d="M251.929,271.679c2.923,3.819,7.51,6.283,12.671,6.283c5.758,0,10.803-3.064,13.617-7.658
			c10.158,4.461,21.459,6.099,28.124,3.605c2.264-0.847,3.761-2.089,4.539-3.597c-11.33-8.439-26.865-13.646-44.007-13.646
			c-16.645,0-31.775,4.91-43.011,12.92c0.521,2.031,2.026,3.684,4.576,4.731C234.035,276.616,243.183,275.394,251.929,271.679z"/>
		<path fill="#626F7C" d="M310.881,270.38c-0.778,1.508-2.275,2.621-4.539,3.468c-6.665,2.494-17.966,0.791-28.124-3.67
			c-2.814,4.594-7.859,7.626-13.617,7.626c-5.161,0-9.749-2.48-12.671-6.299c-8.746,3.715-17.894,4.929-23.49,2.631
			c-2.55-1.047-4.055-2.446-4.576-4.477c-11.404,8.13-18.798,18.853-19.687,32.341h125.396
			C328.709,289.354,321.718,278.452,310.881,270.38z"/>
	</g>
	<g>
		<polygon fill="#3E6834" points="254.024,308 275.71,234.932 297.396,308 		"/>
		<rect x="272" y="308" fill="#634339" width="7" height="26"/>
	</g>
	<g>
		<polygon fill="#3E6834" points="304.577,286 323.792,217.928 343.006,286 		"/>
		<rect x="320" y="286" fill="#634339" width="6" height="24"/>
	</g>
	<g>
		
			<linearGradient id="SVGID_3_" gradientUnits="userSpaceOnUse" x1="860.0848" y1="250.1023" x2="859.4363" y2="169.6979" gradientTransform="matrix(1 0 0 -1 0 401)">
			<stop  offset="0" style="stop-color:#FFFFFF"/>
			<stop  offset="1" style="stop-color:#94CEFF"/>
		</linearGradient>
		<path fill="url(#SVGID_3_)" d="M833.429,199.841c4.979,12.986,12.794,21.363,21.587,21.363c9.809,0,18.404-10.417,23.199-26.039
			c17.306,15.166,36.559,20.737,47.914,12.258c3.857-2.88,6.407-7.102,7.733-12.23c-19.303-28.692-45.768-46.397-74.972-46.397
			c-28.357,0-54.133,16.694-73.277,43.93c0.888,6.904,3.451,12.527,7.796,16.087C802.944,216.627,818.528,212.471,833.429,199.841z"
			/>
		<path fill="#626F7C" d="M933.862,194.957c-1.326,5.128-3.876,9.144-7.733,12.024c-11.355,8.479-30.608,2.805-47.914-12.361
			c-4.794,15.622-13.389,25.987-23.199,25.987c-8.793,0-16.608-8.402-21.587-21.388c-14.901,12.63-30.485,16.773-40.019,8.96
			c-4.345-3.561-6.908-8.777-7.796-15.682C766.185,220.139,753.589,258,752.074,302h213.632
			C964.236,259,952.326,222.401,933.862,194.957z"/>
	</g>
	<g>
		
			<linearGradient id="SVGID_4_" gradientUnits="userSpaceOnUse" x1="730.6726" y1="205.3355" x2="730.2169" y2="148.8315" gradientTransform="matrix(1 0 0 -1 0 401)">
			<stop  offset="0" style="stop-color:#FFFFFF"/>
			<stop  offset="1" style="stop-color:#94CEFF"/>
		</linearGradient>
		<path fill="url(#SVGID_4_)" d="M711.94,230.059c3.499,9.126,8.991,15.013,15.17,15.013c6.893,0,12.934-7.321,16.303-18.299
			c12.162,10.658,25.692,14.573,33.672,8.615c2.71-2.024,4.502-4.991,5.434-8.595c-13.565-20.163-32.164-32.605-52.686-32.605
			c-19.928,0-38.042,11.731-51.495,30.872c0.624,4.852,2.425,8.803,5.479,11.305C690.516,241.856,701.468,238.935,711.94,230.059z"
			/>
		<path fill="#626F7C" d="M782.519,226.701c-0.932,3.604-2.724,6.389-5.434,8.413c-7.98,5.958-21.51,1.952-33.672-8.706
			c-3.369,10.978-9.409,18.253-16.303,18.253c-6.179,0-11.671-5.909-15.17-15.035c-10.472,8.876-21.424,11.785-28.124,6.294
			c-3.053-2.502-4.854-6.095-5.479-10.947C664.684,244.399,655.832,271,654.768,302h150.129
			C803.864,272,795.494,245.987,782.519,226.701z"/>
	</g>
	<g>
		
			<linearGradient id="SVGID_5_" gradientUnits="userSpaceOnUse" x1="41.5091" y1="170.0749" x2="41.2009" y2="131.8621" gradientTransform="matrix(1 0 0 -1 0 401)">
			<stop  offset="0" style="stop-color:#FFFFFF"/>
			<stop  offset="1" style="stop-color:#94CEFF"/>
		</linearGradient>
		<path fill="url(#SVGID_5_)" d="M28.84,254.186c2.366,6.172,6.08,10.153,10.26,10.153c4.662,0,8.747-4.951,11.025-12.375
			c8.225,7.208,17.375,9.855,22.772,5.826c1.833-1.369,3.045-3.375,3.675-5.812c-9.174-13.636-21.752-22.05-35.631-22.05
			c-13.477,0-25.727,7.934-34.825,20.878c0.422,3.281,1.64,5.953,3.705,7.646C14.352,262.163,21.759,260.188,28.84,254.186z"/>
		<path fill="#626F7C" d="M76.572,251.996c-0.63,2.437-1.842,4.28-3.675,5.649c-5.397,4.03-14.547,1.3-22.772-5.908
			c-2.279,7.424-6.363,12.334-11.025,12.334c-4.179,0-7.893-4.001-10.26-10.173c-7.082,6.003-14.488,7.967-19.02,4.254
			c-2.065-1.692-3.283-4.042-3.705-7.324C-3.118,263.966-9.104,282-9.824,303h101.53C91.007,282,85.347,265.039,76.572,251.996z"/>
	</g>
	<g>
		
			<linearGradient id="SVGID_6_" gradientUnits="userSpaceOnUse" x1="129.5446" y1="151.0405" x2="129.3184" y2="122.9786" gradientTransform="matrix(1 0 0 -1 0 401)">
			<stop  offset="0" style="stop-color:#FFFFFF"/>
			<stop  offset="1" style="stop-color:#94CEFF"/>
		</linearGradient>
		<path fill="url(#SVGID_6_)" d="M113.48,267.034c3.018,4.531,7.754,7.453,13.083,7.453c5.945,0,11.154-3.634,14.059-9.084
			c10.488,5.291,22.156,7.235,29.038,4.277c2.337-1.005,3.883-2.478,4.686-4.267c-11.698-10.01-27.737-16.186-45.436-16.186
			c-17.186,0-32.807,5.824-44.409,15.326c0.538,2.409,2.092,4.37,4.725,5.612C95.005,272.89,104.45,271.44,113.48,267.034z"/>
		<path fill="#626F7C" d="M174.347,265.493c-0.804,1.789-2.349,3.109-4.686,4.113c-6.882,2.958-18.55,0.938-29.038-4.353
			c-2.906,5.45-8.115,9.046-14.059,9.046c-5.329,0-10.065-2.941-13.083-7.472c-9.031,4.406-18.475,5.847-24.253,3.121
			c-2.633-1.242-4.186-2.902-4.725-5.311C72.728,274.281,65.094,287,64.176,303h129.47C192.755,288,185.536,275.067,174.347,265.493
			z"/>
	</g>
	<g>
		
			<linearGradient id="SVGID_7_" gradientUnits="userSpaceOnUse" x1="197.2849" y1="182.3111" x2="196.922" y2="137.315" gradientTransform="matrix(1 0 0 -1 0 401)">
			<stop  offset="0" style="stop-color:#FFFFFF"/>
			<stop  offset="1" style="stop-color:#94CEFF"/>
		</linearGradient>
		<path fill="url(#SVGID_7_)" d="M188.07,246.085c1.707,7.269,4.387,11.957,7.402,11.957c3.363,0,6.31-5.831,7.954-14.575
			c5.934,8.489,12.535,11.607,16.428,6.861c1.322-1.612,2.197-3.975,2.651-6.846c-6.618-16.06-15.692-25.97-25.705-25.97
			c-9.723,0-18.561,9.344-25.124,24.589c0.305,3.865,1.183,7.012,2.673,9.005C177.617,255.48,182.961,253.154,188.07,246.085z"/>
		<path fill="#626F7C" d="M222.505,243.218c-0.455,2.87-1.329,5.185-2.651,6.797c-3.893,4.746-10.494,1.603-16.428-6.886
			c-1.644,8.744-4.591,14.563-7.954,14.563c-3.015,0-5.694-4.695-7.402-11.963c-5.109,7.069-10.453,9.392-13.721,5.019
			c-1.49-1.993-2.368-5.044-2.673-8.909c-6.661,15.472-10.98,37.161-11.5,61.161h73.247
			C232.919,280,228.836,258.579,222.505,243.218z"/>
	</g>
	<rect x="-1" y="302" fill="#AA935E" width="960" height="99"/>
	<ellipse fill="#8C7249" cx="597" cy="361.114" rx="67" ry="14.886"/>
	<ellipse fill="#8C7249" cx="793" cy="358.114" rx="59" ry="13.109"/>
	<ellipse fill="#8C7249" cx="696" cy="365.114" rx="56.333" ry="12.516"/>
	<g>
		<polygon fill="#3E6834" points="277.699,289 295.61,220.751 313.52,289 		"/>
		<rect x="292" y="289" fill="#634339" width="6" height="24"/>
	</g>
	<g>
		<polygon fill="#3E6834" points="381.699,285 399.61,216.751 417.52,285 		"/>
		<rect x="396" y="285" fill="#634339" width="6" height="24"/>
	</g>
	<g>
		<polygon fill="#3E6834" points="331.823,294 347.414,234.588 363.006,294 		"/>
		<rect x="344" y="294" fill="#634339" width="5" height="21"/>
	</g>
	<g>
		<polygon fill="#3E6834" points="355.823,290 371.414,230.588 387.006,290 		"/>
		<rect x="368" y="290" fill="#634339" width="5" height="21"/>
	</g>
	<g>
		<polygon fill="#3E6834" points="371.213,301 386.805,241.588 402.396,301 		"/>
		<rect x="384" y="301" fill="#634339" width="5" height="21"/>
	</g>
	<g>
		<rect x="359" y="309" fill="#634339" width="6" height="24"/>
		<polygon fill="#377526" points="344.699,309 362.61,240.751 380.52,309 		"/>
	</g>
	<g>
		<polygon fill="#377526" points="304.699,311 322.61,242.751 340.52,311 		"/>
		<rect x="319" y="311" fill="#634339" width="6" height="24"/>
	</g>
	<g>
		<polygon fill="#377526" points="263.213,315 278.805,255.588 294.396,315 		"/>
		<rect x="276" y="315" fill="#634339" width="5" height="21"/>
	</g>
	<g>
		<path fill="#FFFFFF" d="M800.276,49.611c0,0,5.753-7.985,19.195-7.623c0,0,15.212-0.612,18.642,11.629
			c0,0,13.866-0.148,15.157,8.791c0,0,2.838,15.32-13.682,17.841c0,0-20.116,2.022-19.286-4.488c0,0,0.221-3.004,2.102-4.117
			c0,0-2.102,1.892-3.319,3.116c0,0-6.27,4.896-15.267,4.674c0,0-13.829,1.113-17.591-10.238c0,0,0.774,2.726-0.996,2.337
			c0,0-9.044-1.03-5.421-9.793c0,0,1.77-3.672,5.2-3.783C785.008,57.957,788.106,46.717,800.276,49.611z"/>
	</g>
	<g>
		<path fill="#FFFFFF" d="M632.987,89.459c0,0,1.402-10.459,13.37-8.716c0,0,4.662,0.146,8.913,6.144c0,0,18.321-8.467,29.874,6.557
			c0,0,12.958-3.403,16.341,6.475c0,0,3.383,11.29-10.482,11.207c0,0-2.6,10.418-13.203,11.29c0,0-10.234,1.827-15.928-4.399
			c0,0-2.228,4.897-14.607,6.059c0,0-12.875,0.831-18.486-4.234c0,0-2.003-1.619-3.199-5.769c0,0,0.722,3.611-1.176,3.694
			c0,0-6.871,2.158-12.957-4.152c0,0-12.958-13.28,9.243-16.518C620.689,97.097,623.991,87.302,632.987,89.459z"/>
	</g>
	<g>
		<path fill="#FFFFFF" d="M540.729,65.241c0,0-3.875-4.162-12.93-3.974c0,0-10.247-0.319-12.557,6.062c0,0-9.34-0.077-10.21,4.583
			c0,0-1.912,7.986,9.216,9.3c0,0,13.55,1.054,12.991-2.339c0,0-0.149-1.566-1.416-2.146c0,0,1.416,0.986,2.236,1.624
			c0,0,4.223,2.552,10.284,2.436c0,0,9.315,0.58,11.849-5.337c0,0-0.522,1.421,0.671,1.218c0,0,6.092-0.537,3.652-5.105
			c0,0-1.192-1.914-3.503-1.972C551.013,69.592,548.926,63.733,540.729,65.241z"/>
	</g>
	<g>
		<polyline fill="#FFFFFF" points="449.247,230.417 449.247,274.373 436.818,276.591 435.926,308.115 516.294,308.561 
			516.294,281.033 505.638,269.932 503.417,230.859 449.247,230.417 		"/>
		<rect x="447.029" y="231.749" fill="#AB742A" width="58.612" height="32.856"/>
		<rect x="434.151" y="282.806" fill="#68451A" width="82.586" height="21.313"/>
		<rect x="432.226" y="281.072" fill="#AB742A" width="7.443" height="24.624"/>
		<rect x="512.971" y="281.072" fill="#AB742A" width="7.438" height="24.624"/>
		<rect x="435.699" y="291.918" fill="#AB742A" width="79.591" height="2.864"/>
		<rect x="453.988" y="286.227" fill="#AB742A" width="5.733" height="18.324"/>
		<rect x="473.458" y="286.227" fill="#AB742A" width="5.727" height="18.324"/>
		<rect x="492.926" y="286.227" fill="#AB742A" width="5.727" height="18.324"/>
		<rect x="432.798" y="284.767" fill="#AB742A" width="87.613" height="3.096"/>
		<polyline fill="#787878" points="536.203,275.999 475.639,279.114 417.553,275.999 432.349,285.339 475.327,285.495 
			475.945,285.495 521.414,285.339 536.203,275.999 		"/>
		<polyline fill="#C8B9A5" points="524.837,273.82 510.668,264.335 443.094,264.335 428.922,273.82 417.553,275.999 
			432.226,281.072 521.531,281.072 536.203,275.999 524.837,273.82 		"/>
		<polyline fill="#787878" points="523.537,224.053 476.335,226.862 429.101,224.053 447.887,233.396 504.75,233.396 
			523.537,224.053 		"/>
		<polyline fill="#C8B9A5" points="513.499,224.539 479.353,212.389 473.285,212.389 439.133,224.539 429.101,224.053 
			442.444,227.752 510.194,227.752 523.537,224.053 513.499,224.539 		"/>
		<polyline fill="#AB9F8E" points="475.789,262.934 443.094,262.934 443.094,264.954 510.668,264.954 510.668,262.934 
			475.789,262.934 		"/>
		<rect x="428.297" y="304.076" fill="#C8B9A5" width="95.763" height="8.878"/>
		<path fill="#68451A" d="M463.9,254.173v-12.691c0-2.431-1.968-4.404-4.403-4.404h-3.623c-2.432,0-4.402,1.974-4.402,4.404v12.691
			H463.9"/>
		<path fill="#68451A" d="M482.553,254.173v-12.691c0-2.431-1.971-4.404-4.41-4.404h-3.616c-2.439,0-4.409,1.974-4.409,4.404v12.691
			H482.553"/>
		<path fill="#68451A" d="M501.2,254.173v-12.691c0-2.431-1.971-4.404-4.406-4.404h-3.62c-2.438,0-4.406,1.974-4.406,4.404v12.691
			H501.2"/>
		<rect x="473.285" y="209.99" fill="#777D82" width="5.269" height="2.398"/>
		<path fill="#777D82" d="M483.561,203.86c-0.085-0.74-0.726-0.963-1.372-1.114c0.663-0.566,1.69,0.494,2.311,0.587
			c-0.393-0.659-1.993-1.296-2.768-1.189c-0.578,0.073-1.018,0.613-1.485,1.018c-0.547,0.485-1.506,1.49-2.254,1.584
			c-0.286,0.036-0.741,0.029-0.819-0.298c-0.078-0.343,1.365-1.331,1.424-1.598c-0.169,0.04-0.37,0.016-0.533,0.047
			c0.318-0.247,0.722-0.447,1.012-0.756c-0.355-0.026-0.713-0.003-1.057,0.049c0.48-0.405,0.913-0.824,1.255-1.358
			c-0.657,0.09-1.269,0.416-1.89,0.6c0.621-0.702,1.591-1.47,1.87-2.385c-1.411,0.07-3.298,2.084-4.68,2.444
			c0-0.938,0.078-0.706,0.381-1.581c-0.8,0.611-1.763,0.769-2.562,1.291c-0.345,0.225-0.592,0.514-0.605,0.994
			c-0.533-0.015-1.099,0.401-1.632,0.538c0.582-0.062,1.167,0.247,1.814,0.177v0.06c0.341,0.382,1.057,0.036,1.482,0.176
			c0.885,0.297,0.312,3.476,1.061,4.143c0.26,0.226,0.67,0.362,1.138,0.41c0.053,1.032,0.254,1.912,0.417,2.964
			c0.533-0.369,0.338-1.452,0.338-2.062c0-0.257,0.059-0.616,0.032-0.909c1.129-0.127,2.264-0.733,2.231-1.878
			c0.331,0.273,0.709,0.573,1.053,0.865c-0.136-0.489-0.247-1.011-0.24-1.558c0.335,0.146,0.556,0.556,0.66,0.889
			c-0.146-0.609-0.052-1.289-0.702-1.668c0.676,0.039,1.518,1.062,2.071,1.431c-0.032-0.299-0.091-0.801-0.293-1.039
			c-0.127-0.146-0.416-0.169-0.546-0.333c0.812-0.14,1.262,0.491,1.941,0.749c-0.14-0.902-0.979-0.689-1.525-1.225
			c0.611-0.628,1.795,0.205,2.348,0.509c0.222-0.966-1.495-0.925-2.003-0.997C482.247,203.193,482.93,203.397,483.561,203.86"/>
		<polyline fill="#AB9F8E" points="475.789,256.467 443.094,256.467 443.094,259.196 510.668,259.196 510.668,256.467 
			475.789,256.467 		"/>
		<rect x="500.308" y="257.502" fill="#AB9F8E" width="1.333" height="6.213"/>
		<rect x="493.427" y="257.502" fill="#AB9F8E" width="1.33" height="6.213"/>
		<rect x="486.542" y="257.502" fill="#AB9F8E" width="1.33" height="6.213"/>
		<rect x="479.659" y="257.502" fill="#AB9F8E" width="1.33" height="6.213"/>
		<rect x="472.556" y="257.502" fill="#AB9F8E" width="1.333" height="6.213"/>
		<rect x="465.455" y="257.502" fill="#AB9F8E" width="1.333" height="6.213"/>
		<rect x="458.352" y="257.502" fill="#AB9F8E" width="1.333" height="6.213"/>
		<rect x="451.25" y="257.502" fill="#AB9F8E" width="1.327" height="6.213"/>
		<path fill="#7DB5D1" d="M553.318,319.159c0,5.271-33.277,9.544-74.319,9.544c-41.043,0-74.316-4.272-74.316-9.544
			c0-5.269,33.273-9.548,74.316-9.548C520.041,309.611,553.318,313.891,553.318,319.159"/>
		<path fill="#8C8A88" d="M523.319,315.384c0.046-1.249-0.143-2.687-0.575-4.329c-1.552-5.866-4.751-9.586-10.878-5.548
			c-2.107,1.389-3.401,3.396-5.343,4.55c-0.946,0.56-2.312,0.159-3.438,0.976c-1.255,0.911-1.685,2.891-2.562,4.352L523.319,315.384
			"/>
		<path fill="#8C8A88" d="M448.297,321.159c-0.092-0.296-0.209-0.596-0.371-0.911c-2.748-5.311-12.126-3.238-16.683-5.519
			c-2.946-1.47-2.764-3.154-6.49-1.905c-2.264,0.754-4.368,0.149-4.81,2.56l-1.33,1.778c-0.098,1.249,0.123,2.631,0.566,3.997
			H448.297"/>
	</g>
	<g>
		<path fill="#768928" d="M222.367,357.067c0,7.52-46.313,13.594-103.443,13.594c-57.123,0-103.429-6.074-103.429-13.594
			c0-7.511,46.306-13.597,103.429-13.597C176.055,343.469,222.367,349.556,222.367,357.067"/>
		<path fill="#8C8A88" d="M99.317,353.078c-0.374-12.613,2.692-26.165,4.622-38.188c2.752-17.185,3.128-16.464,15.397-27.018
			c9.188-7.897,22.552-38.154,36.285-22.23c5.478,6.349,2.864,16.406,7.162,22.95c2.935,4.466,10.282,4.545,13.799,8.692
			c2.905,3.427,3.889,7.797,6.358,11.625c9.829,15.25,18.767,21.303,17.38,44.168H99.317"/>
		<path fill="#76747C" d="M105.775,353.078c-0.281-9.528,2.036-19.762,3.493-28.841c2.087-12.983,2.366-12.44,11.635-20.403
			c6.94-5.968,17.031-28.827,27.405-16.797c4.14,4.797,2.161,12.389,5.407,17.335c2.215,3.37,7.763,3.435,10.42,6.562
			c2.193,2.591,2.943,5.893,4.807,8.784c7.422,11.515,14.167,16.095,13.118,33.361L105.775,353.078"/>
		<path fill="#76747C" d="M85.686,353.078c-0.919-6.637-3.283-23.03-8.79-26.148c-10.816-6.118-8.281,9.601-14.567,12.221
			c-6.128,2.564-10.786-7.445-17.743-4.21c-4.798,2.233-10.099,12.873-11.227,18.137H85.686"/>
	</g>
	<g>
		<path fill="#768928" d="M284.602,361.359c0,4.359-19.652,7.892-43.902,7.892c-24.253,0-43.9-3.533-43.9-7.892
			c0-4.366,19.647-7.899,43.9-7.899C264.95,353.46,284.602,356.993,284.602,361.359"/>
		<path fill="#8C8A88" d="M211.208,359.736c-0.475-10.452,5.52-23.969,7.573-34.484c0.631-3.256,0.274-7.679,2.561-10.476
			c1.506-1.828,8.278-7.083,12.118-7.248c9.811-0.407,6.386,3.457,9.145,7.412c4.511,6.479,8.895,13.416,13.238,19.888
			c5.743,8.579,3.742,16.12,6.481,24.908L211.208,359.736"/>
		<path fill="#76747C" d="M217.765,359.736c-0.379-8.306,4.386-19.052,6.015-27.406c0.5-2.597,0.218-6.111,2.039-8.331
			c1.191-1.452,6.576-5.631,9.63-5.76c7.796-0.325,5.081,2.744,7.269,5.89c3.585,5.151,7.075,10.666,10.517,15.806
			c4.575,6.819,2.984,12.815,5.159,19.801H217.765"/>
	</g>
</g>
<g id="Interactions">
	<path id="arm" fill="#FFDD00" stroke="#634339" stroke-width="5" stroke-miterlimit="10" d="M818.667,276.274
		c0,0,12.667,2.437,17.333-4.752s1-18.522,11.667-18.855s26.333,2.25,19,16.292C859.333,283,857.533,287.97,848,291.304
		c-11,3.847-18,2.562-27.667-2.637c-6.587-3.543-11.667-9.3-11.667-9.3L812,274.64L818.667,276.274z"/>
	<g>
		<path fill="#FFDD00" stroke="#634339" stroke-width="5" stroke-miterlimit="10" d="M834,281.276c0,29.241,11,53.058-49,52.946
			c-57-0.107-49-23.705-49-52.946s19.729-59.946,49-59.946S834,252.035,834,281.276z"/>
		<path fill="none" stroke="#634339" stroke-width="5" stroke-linecap="round" stroke-linejoin="round" stroke-miterlimit="10" d="
			M754.667,203.912c0,0,11.988-3.29,19.667,3.421c5.465,4.776,4.333,13.997,4.333,13.997"/>
		<path fill="none" stroke="#634339" stroke-width="5" stroke-linecap="round" stroke-linejoin="round" stroke-miterlimit="10" d="
			M795.933,208.462c0,0-8.044-2.43-13.197,2.528c-3.667,3.529-2.908,10.34-2.908,10.34"/>
		<circle fill="#634339" cx="766.5" cy="261.167" r="4.5"/>
		<circle fill="#634339" cx="800.5" cy="261.167" r="4.5"/>
		<path fill="none" stroke="#634339" stroke-width="5" stroke-linecap="round" stroke-linejoin="round" stroke-miterlimit="10" d="
			M750.333,281.398c0,0,2,2.335,8.333,2.636c6.333,0.3,12.833,0.282,12.333,6.645c-0.5,6.363-2.333,11.703-9,11.655
			c-7.37-0.053-11.333-5.982-13.667-8"/>
		
			<polyline fill="none" stroke="#634339" stroke-width="5" stroke-linecap="round" stroke-linejoin="round" stroke-miterlimit="10" points="
			774.5,334 774.5,349 774.5,358 		"/>
		
			<polyline fill="none" stroke="#634339" stroke-width="5" stroke-linecap="round" stroke-linejoin="round" stroke-miterlimit="10" points="
			762,355 774.5,347.667 785.204,355 		"/>
		
			<polyline fill="none" stroke="#634339" stroke-width="5" stroke-linecap="round" stroke-linejoin="round" stroke-miterlimit="10" points="
			805.5,334 805.5,349 805.5,358 		"/>
		
			<polyline fill="none" stroke="#634339" stroke-width="5" stroke-linecap="round" stroke-linejoin="round" stroke-miterlimit="10" points="
			793,355 805.5,347.667 816.204,355 		"/>
	</g>
	<g>
		
			<path fill="#F6921E" stroke="#634339" stroke-width="5" stroke-linecap="round" stroke-linejoin="round" stroke-miterlimit="10" d="
			M779.114,300.924c0,0,12.653,0.832,17.409-3.421c4.756-4.252,7.668-12.131,7.668-12.131l-25.124-0.063L779.114,300.924z"/>
		
			<path fill="#F6921E" stroke="#634339" stroke-width="5" stroke-linecap="round" stroke-linejoin="round" stroke-miterlimit="10" d="
			M779.764,270.75c0,0,18.903-0.417,25.736,5.25s10.704,15.866,10.704,15.866l-37.44-1.199L779.764,270.75z"/>
	</g>
	<path id="path" fill="#634339" d="M506.667,311.656c0,0,5.333,13.613,19.333,21.009s35,6.069,35,6.069v-16.006
		c0,0-20.783,5.577-33.052,3.465C516.749,324.264,506.667,311.656,506.667,311.656z"/>
	<g>
		<path fill="none" stroke="#634339" stroke-width="5" stroke-miterlimit="10" d="M645.981,209.758
			c-0.245-6.392-3.287-11.258-7.008-11.258h-87.554c-3.882,0-7.919,5.118-7.919,11.897v0.92c-5,2.537-14.617,7.904-8.052,14.023
			c3.948,2.701,5.18,0.831,8.087-3.946c0.064-0.069-0.035-0.126-0.035-0.193v118.385c0,6.78,4.037,12.913,7.919,12.913h4.916
			c-0.713,3-2.484,13.692,6.977,15.004c2.619,0.148,6.198-3.004,1.215-15.004h60.714c-4.983,12-1.404,15.152,1.218,15.004
			c9.46-1.312,7.688-12.004,6.975-15.004h5.541c3.881,0,6.526-6.134,6.526-12.913v-121.08c1,0.521,1.446,1.133,2.111,1.849
			c2.907,4.777,4.487,6.742,8.434,4.041C663.314,217.623,651.269,211.87,645.981,209.758z"/>
		<g>
			<path fill="#EAA61F" d="M556.188,351.457c0,0-4.302,14.296,6.764,15.831c2.765,0.156,6.607-3.534,0.306-17.06L556.188,351.457
				L556.188,351.457z"/>
			<path fill="#EAA61F" d="M632.861,351.457c0,0,4.302,14.296-6.763,15.831c-2.768,0.156-6.609-3.534-0.309-17.06L632.861,351.457
				L632.861,351.457z"/>
			<path fill="#F06D9B" d="M643.35,209.147c0,0,21.601,7.06,12.462,15.577c-3.947,2.701-5.401,0.83-8.307-3.946
				c-2.701-2.907-4.777-4.154-4.777-4.154L643.35,209.147L643.35,209.147z"/>
			<path fill="#F06D9B" d="M547.994,210.185c0,0-21.597,7.061-12.461,15.576c3.948,2.701,5.401,0.831,8.309-3.946
				c2.699-2.909,4.776-4.154,4.776-4.154L547.994,210.185L547.994,210.185z"/>
			<path fill="#EAA61F" d="M645.646,340.008c0,6.78-3.151,12.276-7.032,12.276H551.06c-3.882,0-7.032-5.496-7.032-12.276v-129.19
				c0-6.78,3.15-12.277,7.032-12.277h87.554c3.882,0,7.032,5.497,7.032,12.277V340.008L645.646,340.008z"/>
			<g>
				<path fill="#FFFFFF" d="M615.313,243.207c0,9.406-9.274,17.03-20.716,17.03c-11.44,0-20.716-7.624-20.716-17.03
					c0-9.405,9.276-17.029,20.716-17.029C606.039,226.178,615.313,233.802,615.313,243.207L615.313,243.207z"/>
				<path fill="#634339" d="M568.443,227.393c0,2.545-2.063,4.608-4.607,4.608c-2.545,0-4.608-2.063-4.608-4.608
					c0-2.544,2.063-4.607,4.608-4.607C566.38,222.786,568.443,224.849,568.443,227.393L568.443,227.393z"/>
				<path fill="#634339" d="M630.409,227.393c0,2.545-2.061,4.608-4.608,4.608c-2.543,0-4.607-2.063-4.607-4.608
					c0-2.544,2.064-4.607,4.607-4.607C628.347,222.786,630.409,224.849,630.409,227.393L630.409,227.393z"/>
				<path fill="#634339" d="M598.151,235.654c0,1.616-2.064,2.925-4.607,2.925c-2.546,0-4.608-1.31-4.608-2.925
					c0-1.616,2.062-2.925,4.608-2.925C596.087,232.728,598.151,234.037,598.151,235.654L598.151,235.654z"/>
				
					<path fill="none" stroke="#634339" stroke-width="5" stroke-linecap="round" stroke-linejoin="round" stroke-miterlimit="10" d="
					M593.396,237.703c0,0,1.464,8.926-4.903,8.633c-4.828,0-5.999-3.217-6.072-6.291"/>
				
					<path fill="none" stroke="#634339" stroke-width="5" stroke-linecap="round" stroke-linejoin="round" stroke-miterlimit="10" d="
					M593.833,237.703c0,0-1.462,8.926,4.904,8.633c4.829,0,5.999-3.217,6.072-6.291"/>
			</g>
		</g>
	</g>
	<g>
		<path fill="#634339" d="M651.525,237.001c1.392,0,2.735,0.022,4.021,0.166c1.933,0.214,3.7,0.884,5.344,1.685
			c1.01,0.492,2.033,0.896,2.963,1.55c0.297,0.209,0.548,0.511,0.82,0.765c0.431,0.406,0.862,0.812,1.292,1.22
			c0.803,0.73,1.599,1.684,2.183,2.548c0.192,0.34,0.386,0.681,0.578,1.02c0.327,0.6,0.652,1.2,0.977,1.802
			c0.165,0.314,0.893,1.863,1.25,1.863c0.203-0.231,0.777-0.316,1.073-0.403c0.521-0.165,1.039-0.328,1.56-0.493
			c0.223-0.066,0.457-0.138,0.712-0.138c0.08-0.013,0.16-0.026,0.239-0.04c0.119-0.012,0.239-0.026,0.358-0.04
			c0.135-0.066,0.385-0.039,0.558-0.039c0.114-0.064,0.292-0.081,0.438-0.081c0.093-0.013,0.186-0.024,0.277-0.038
			c0.095-0.013,0.188-0.027,0.28-0.041c0.093-0.013,0.187-0.025,0.278-0.04c0.089-0.021,0.179-0.044,0.268-0.068
			c0.317-0.099,0.638-0.252,1.007-0.252c0.092-0.011,0.187-0.024,0.277-0.038c0.102-0.052,0.273-0.04,0.398-0.04
			c0.249-0.102,0.664-0.04,0.956-0.04c0.22-0.101,1.005-0.038,1.315-0.038c0.108-0.067,0.255-0.08,0.397-0.08
			c0.269-0.11,0.721-0.042,1.036-0.042c0.137-0.086,0.339-0.119,0.518-0.119c0.112-0.055,0.295-0.041,0.438-0.041
			c0.253-0.113,0.685-0.023,0.955-0.007c0.305,0.019,0.629,0.022,0.916,0.04c0.571,0.004,1.141,0.01,1.711,0.014
			c0.895,0.055,1.787,0.113,2.668,0.182c4.319,0.342,8.712,0.809,12.695,1.857c1.526,0.403,3.025,0.851,4.47,1.443
			c0.542,0.217,1.084,0.434,1.628,0.652c0,0.052-0.014,0.038,0.038,0.038v-0.038c0.189-0.192,0.288-0.656,0.357-0.917
			c0.306-1.133,0.507-2.327,0.925-3.42c0.255-0.672,0.614-1.321,0.96-1.946c0.837-1.517,1.807-2.967,3.041-4.277
			c0.328-0.351,0.676-0.717,1.061-1.006c0.56-0.421,1.246-0.684,1.855-1.017c0.744-0.412,1.567-0.911,2.51-0.911
			c0.261-0.155,0.896-0.361,1.235-0.361c0.136-0.055,0.314-0.039,0.477-0.039c0.136-0.087,0.339-0.12,0.518-0.12
			c0.255-0.118,0.945-0.041,1.273-0.041c2.118,0,4.159,0.136,6.053,0.548c3.41,0.739,7.005,2.384,9.418,5.118
			c1.161,1.317,2.01,2.848,2.727,4.406c0.299,0.652,0.733,1.233,1.003,1.907c0.429,1.074,0.656,2.316,0.83,3.51
			c0.128,0.744,0.255,1.486,0.385,2.228c0.088,0.707,0.095,1.471,0.084,2.231c-0.067,4.219-2.225,8.388-5.505,10.848
			c-0.707,0.529-1.451,1.005-2.225,1.394c-0.709,0.355-1.47,0.629-2.189,0.956c-0.238,0.104-0.485,0.195-0.74,0.27
			c-0.17,0.048-0.371,0.043-0.501,0.171c-0.052,0.051-0.09,0.108-0.097,0.182c-0.025,0.209,0.275,0.681,0.377,0.877
			c0.328,0.66,0.657,1.319,0.985,1.973c0.248,0.483,0.508,0.965,0.666,1.48c1.322,4.358,3.073,8.576,3.529,13.381
			c0.078,0.824,0.049,1.686,0.049,2.547c-0.011,0.266-0.025,0.532-0.037,0.796c0.024,1.508,0.162,3.031,0.115,4.578
			c-0.063,0.584-0.126,1.171-0.191,1.754c-0.039,0.489-0.073,0.996-0.184,1.462c-0.152,0.575-0.304,1.148-0.458,1.722
			c-0.236,1.105-0.494,2.218-0.861,3.272c-0.156,0.44-0.326,0.867-0.511,1.295c-0.135,0.303-0.331,0.603-0.403,0.932
			c-0.087,0.393,0.1,0.79,0.264,1.111c0.518,1.015,1.24,2.031,0.535,3.251c-0.63,1.085-2.123,1.602-3.325,1.756
			c-0.586,0.073-1.268,0.11-1.731,0.432c-0.268,0.183-0.476,0.479-0.564,0.775c-0.017,0.078-0.035,0.157-0.053,0.237
			c0.021,0.088,0.088,0.17,0.17,0.215c0.355,0.188,0.83,0.278,1.22,0.389c1.096,0.307,2.306,0.731,3.315,1.247
			c0.332,0.171,0.698,0.321,0.986,0.573c0.126,0.111,0.195,0.263,0.262,0.41c0.8,1.783-0.922,4.371-1.513,5.89
			c-0.421,1.076-0.64,2.308-1.429,3.202c-0.44,0.497-0.979,0.729-1.696,0.684c-0.533-0.034-1.085-0.399-1.526-0.65
			c-1.026-0.577-2.048-1.157-3.04-1.829c-0.143-0.098-0.889-0.739-0.968-0.739c-0.054,0.077-0.116,0.139-0.125,0.241
			c-0.028,0.256,0.068,0.558,0.112,0.795c0.12,0.65,0.239,1.301,0.357,1.95c0.364,2.181,0.144,4.8-0.324,6.837
			c-0.675,2.921-1.75,5.675-4.155,7.658c-0.477,0.39-0.976,0.764-1.491,1.091c-0.469,0.295-1.056,0.523-1.405,0.986
			c-0.274,0.364-0.32,0.844-0.5,1.26c-0.091,0.211-0.401,0.494-0.344,0.75c0.044,0.207,2.394,1.262,2.742,1.353
			c1.079,0.277,2.292,0.255,3.249,0.784c0.468,0.258,0.821,0.823,1.145,1.241c2.368,3.043,2.794,8.739,0.627,12.083
			c-0.332,0.51-0.705,1.01-1.197,1.433c-2.486,2.12-6.584,2.142-9.997,1.703c-1.085-0.144-2.126-0.389-3.186-0.595
			c-0.219-0.044-0.739-0.311-0.934-0.247c-0.103,0.032-0.154,0.145-0.146,0.253c0.089,1.135,0.381,2.169,0.362,3.382
			c-0.038,2.363-1.71,4.26-4.138,4.26c-0.29-0.005-0.578-0.012-0.869-0.02c-2.311-0.366-3.732-2.023-4.449-4.127
			c-0.186-0.541-0.293-1.104-0.362-1.705c-0.037-0.322,0.048-0.738-0.087-1.014c-0.097-0.198-0.249-0.322-0.485-0.329
			c-0.542-0.007-1.833,0.064-2.171,0.404c-0.245,0.244-0.241,1.006-0.31,1.375c-0.187,0.741-0.376,1.482-0.565,2.224
			c-0.165,0.528-0.499,1.008-0.842,1.45c-0.265,0.339-0.499,0.652-0.819,0.975c-1.089,1.089-2.759,1.546-4.406,1.235
			c-0.609-0.116-1.216-0.363-1.726-0.687c-0.47-0.296-0.94-0.611-1.326-1.064c-0.987-1.157-1.402-2.752-1.297-4.409
			c0.065-1.063,0.304-1.941,0.513-2.908c0.064-0.295,0.045-0.74,0.202-0.995c0.024-0.04,0.028-0.077,0.089-0.077
			c-0.082-0.091-0.165-0.164-0.284-0.182c-0.237-0.005-0.476-0.012-0.712-0.017h-1.592c-1.407,0-2.815-0.021-4.182-0.043
			c-0.954-0.122-1.907-0.246-2.863-0.368c-0.274-0.045-0.839-0.237-1.099-0.169c-0.194,0.052-0.521,0.505-0.689,0.664
			c-0.409,0.348-0.819,0.696-1.228,1.042c-0.546,0.482-1.055,1.04-1.62,1.48c-0.862,0.668-1.94,1.006-2.878,1.55
			c-2.283,1.322-5.759,3.112-8.619,1.825c-0.794-0.356-1.469-0.911-2.091-1.573c-0.952-1.013-1.763-2.217-2.195-3.496
			c-0.989-2.919-1.334-7.659,0.646-10.133c0.217-0.273,0.53-0.475,0.81-0.662c1.047-0.708,2.312-1.067,3.46-1.565
			c1.226-0.551,2.45-1.096,3.676-1.646c0.099-0.035,0.22-0.08,0.26-0.189c0.062-0.184-0.057-0.48-0.092-0.656
			c-0.12-0.651-0.242-1.301-0.362-1.951c-0.3-2.099-0.53-4.245-0.6-6.49c-0.049-1.516,0.042-3.032,0.204-4.458
			c0.128-0.874,0.256-1.752,0.382-2.629c0.177-1.4,0.431-2.784,0.651-4.139c0.19-1.18,0.594-2.274,0.8-3.461
			c0.06-0.357,0.174-0.779,0.133-1.158c-0.013-0.104-0.046-0.182-0.127-0.249c-0.146-0.114-0.388-0.122-0.571-0.159
			c-0.317-0.081-0.632-0.162-0.95-0.246c-1.017-0.339-2.011-0.72-3.004-1.116c-0.702-0.282-1.405-0.563-2.107-0.846
			c-0.851-0.382-1.7-0.742-2.533-1.181c-0.723-0.414-1.445-0.828-2.169-1.243c-0.615-0.344-1.23-0.686-1.847-1.031
			c-1.066-0.643-2.057-1.435-3.055-2.191c-0.635-0.48-1.259-1.002-1.822-1.603c-0.573-0.609-1.048-1.332-1.487-2.024
			c-0.424-0.659-0.849-1.317-1.273-1.977c-0.581-0.916-1.116-1.848-1.63-2.804c-0.391-0.726-0.809-1.471-1.089-2.244
			c-0.196-0.686-0.39-1.371-0.585-2.057c-1.252-4.065-1.671-8.655-1.448-13.426c0.097-2.089,0.388-4.106,0.677-6.091
			c0.179-1.037,0.359-2.071,0.538-3.109c0.101-0.688,0.202-1.376,0.303-2.065c0.133-0.709,0.334-1.385,0.516-2.071
			c0.184-0.675,0.37-1.351,0.555-2.028c0.171-0.411,0.341-0.824,0.51-1.237c-0.435-0.313-0.918-0.529-1.384-0.776
			c-0.436-0.253-0.873-0.505-1.31-0.76c-2.467-1.534-4.371-3.859-5.447-6.477c-2.952-7.194-1.891-16.6,3.177-22.154
			c0.601-0.661,1.296-1.181,1.984-1.677c0.323-0.287,0.644-0.574,0.968-0.861c0.836-0.648,1.941-1.16,2.936-1.519
			c0.327-0.117,0.685-0.254,1.069-0.254c0.101-0.026,0.204-0.051,0.305-0.076c0.544-0.206,1.036-0.562,1.687-0.562
			c0.159-0.02,0.317-0.041,0.472-0.061c0.255-0.054,0.467-0.178,0.763-0.178c0.105-0.011,0.212-0.024,0.316-0.039
			c0.138-0.056,0.316-0.04,0.479-0.04c0.119-0.014,0.239-0.025,0.357-0.04C651.367,237.051,651.445,237.028,651.525,237.001"/>
		<path fill="#FFEAC3" d="M652.044,240.066c-0.28,0.051-0.559,0.104-0.836,0.158c-0.66,0.093-1.357,0.196-1.989,0.368
			c-3.265,0.885-7.179,3.428-8.762,6.598c-0.499,0.995-0.973,1.987-1.307,3.067c-0.175,0.563-0.283,1.13-0.426,1.716
			c-0.054,0.219-0.442,1.667-0.098,1.667v-0.039c0.67-0.531,1.544-0.995,2.469-0.995c0.095-0.048,0.274-0.041,0.398-0.041
			c0.08-0.012,0.158-0.027,0.239-0.041c0.079-0.011,0.158-0.026,0.238-0.038c0.081-0.014,0.161-0.026,0.239-0.041
			c0.08-0.013,0.16-0.026,0.24-0.039c0.079-0.015,0.16-0.027,0.238-0.04c0.211-0.115,0.533-0.159,0.797-0.159
			c0.238-0.099,0.636-0.041,0.915-0.041c0.119-0.064,0.289-0.078,0.438-0.078c0.144-0.066,0.359-0.012,0.517,0
			c0.37,0.02,0.724,0.117,1.077,0.187c0.435,0.09,0.87,0.179,1.307,0.268c2.171,0.571,4.137,1.327,5.923,2.668
			c0.706,0.529,1.37,1.206,1.977,1.879c0.125,0.138,0.181,0.343,0.358,0.43c0.072,0.037,0.164,0.018,0.223-0.027
			c0.166-0.136,0.332-0.272,0.496-0.41c0.595-0.429,1.19-0.857,1.785-1.283c0.36-0.262,0.721-0.522,1.082-0.784
			c0.842-0.463,1.683-0.929,2.524-1.393c0.778-0.422,1.555-0.847,2.332-1.271c0.696-0.35,1.433-0.617,2.107-1.007
			c0.252-0.146,0.542-0.288,0.717-0.55c0.135-0.207,0.081-0.471,0.016-0.695c-0.15-0.513-0.482-0.941-0.739-1.399
			c-0.424-0.756-0.865-1.524-1.404-2.223c-2.486-3.223-5.852-5.625-9.869-6.284c-0.55-0.089-1.106-0.077-1.71-0.093
			C653.078,240.087,652.554,240.066,652.044,240.066"/>
		<path fill="#FFEAC3" d="M721.238,240.741c-0.434,0.29-1.047,0.424-1.547,0.578c-0.761,0.233-1.512,0.508-2.183,0.916
			c-2.024,1.223-3.401,3.56-4.367,5.546c-0.327,0.669-0.653,1.333-0.829,2.077c-0.108,0.45-0.215,0.903-0.322,1.352
			c-0.156,0.61-0.527,1.449-0.166,2.099c0.483,0.876,1.904,1.281,2.714,1.707c0.399,0.248,0.799,0.496,1.199,0.745
			c0.462,0.294,0.925,0.591,1.386,0.885c1.093,0.761,2.188,1.524,3.282,2.285c0.182,0.128,0.973,0.722,1.151,0.722
			c0.672-1.103,1.216-2.251,1.911-3.342c1.334-2.096,3.828-3.542,6.043-4.279c0.496-0.148,0.991-0.296,1.486-0.444
			c0.396-0.127,0.81-0.294,1.269-0.294c0.224-0.103,0.762-0.239,1.036-0.239c0.268-0.119,0.824-0.024,1.153-0.049
			c0.343-0.028,0.619-0.183,0.997-0.189c0.33,0.004,0.662,0.008,0.992,0.013c0.713,0.093,1.418,0.244,2.152,0.279
			c0.177,0.008,0.249-0.135,0.36-0.135c-0.534-1.064-1.025-2.119-1.655-3.133c-1.496-2.406-3.57-4.178-6.038-5.411
			c-0.687-0.344-1.388-0.768-2.145-0.961C726.634,240.837,724.08,240.741,721.238,240.741"/>
		<path fill="#FFEAC3" d="M682.819,250.616c-0.252,0.03-0.502,0.061-0.756,0.09c-0.636,0.066-1.274,0.13-1.912,0.193
			c-0.572,0.042-1.04,0.257-1.594,0.339c-0.69,0.101-1.408,0.077-2.108,0.143c-0.803,0.076-1.61,0.273-2.345,0.527
			c-3.374,1.155-6.783,2.453-9.91,4.099c-3.156,1.661-6.234,3.998-8.775,6.704c-0.691,0.734-1.368,1.513-1.922,2.33
			c-0.423,0.656-0.848,1.309-1.272,1.963c-1.251,1.728-2.507,3.429-3.521,5.272c-0.642,1.163-1.235,2.353-1.659,3.628
			c-0.433,1.298-0.571,2.702-0.834,4.09c-0.213,1.193-0.424,2.388-0.637,3.584c-0.41,2.167-0.624,4.432-0.66,6.771
			c-0.011,0.558-0.045,1.163-0.036,1.754c0.111,6.995,1.962,13.622,6.265,18.498c1.958,2.223,4.334,3.751,6.739,5.208
			c5.47,3.309,11.758,5.209,18.526,5.961c1.724,0.307,3.451,0.614,5.175,0.919c0.96,0.177,1.852,0.468,2.909,0.468
			c0.093-0.015,0.188-0.026,0.278-0.039c0.173-0.102,0.379-0.126,0.541-0.259c0.301-0.248,0.448-0.636,0.593-0.967
			c0.411-0.944,0.645-1.975,1.075-2.907c0.517-1.123,1.299-2.114,2.031-3.127c0.19-0.264,1.446-2.057,1.652-2.057
			c-0.044-0.084-0.107-0.181-0.057-0.285c0.084-0.178,0.407-0.306,0.559-0.414c0.363-0.271,0.727-0.543,1.089-0.815
			c1.454-0.979,2.942-1.769,4.612-2.325c0.495-0.167,1.079-0.381,1.639-0.381c0.093-0.015,0.188-0.028,0.279-0.039
			c0.138-0.058,0.316-0.042,0.477-0.042c0.094-0.013,0.187-0.025,0.279-0.038c0.225-0.139,0.546-0.202,0.836-0.202
			c0.153-0.07,0.409-0.041,0.597-0.041c0.08-0.012,0.159-0.023,0.24-0.037c0.091-0.015,0.185-0.026,0.277-0.041
			c0.08-0.012,0.16-0.025,0.239-0.038c0.159-0.113,0.423-0.16,0.638-0.16c0.12-0.055,0.295-0.04,0.437-0.04
			c0.255-0.113,0.724-0.036,0.995-0.01c0.642,0.064,1.258,0.097,1.872,0.199c1.326,0.151,2.653,0.305,3.979,0.456
			c0.912,0.133,1.75,0.46,2.586,0.757c0.626,0.275,1.253,0.548,1.878,0.819c0.23,0.122,0.513,0.449,0.793,0.449
			c0.375-0.565,0.817-1.101,1.214-1.647c0.695-0.966,1.314-1.936,2.141-2.841c1.655-1.817,3.584-3.28,5.589-4.492
			c0.451-0.265,0.902-0.528,1.353-0.796c0.624-0.387,1.318-0.935,2.123-0.935c0.137-0.062,0.336-0.022,0.479-0.004
			c1.497,0.169,2.974,1.821,4.008,2.92c0.112,0.119,0.694,0.823,0.808,0.823v-0.036c0.273-0.261,0.326-0.735,0.433-1.076
			c0.375-1.213,0.732-2.444,0.963-3.741c0.202-1.15,0.433-2.326,0.471-3.545c0.05-1.615-0.092-3.17-0.189-4.738
			c-0.003-0.517-0.006-1.034-0.01-1.55c-0.031-0.97-0.121-1.922-0.287-2.826c-0.359-1.961-0.981-3.756-1.586-5.575
			c-0.381-1.115-0.761-2.23-1.143-3.347c-0.274-0.78-0.548-1.557-0.825-2.337c-0.319-0.631-0.638-1.26-0.957-1.891
			c-0.686-1.369-1.354-2.711-2.224-3.998c-0.693-1.025-1.483-2.027-2.316-2.972c-0.561-0.635-1.107-1.313-1.759-1.907
			c-1.588-1.441-3.381-2.558-5.089-3.794c-1.796-1.298-3.62-2.563-5.52-3.664c-1.193-0.688-2.481-1.196-3.699-1.835
			c-0.855-0.45-1.653-1.101-2.549-1.467c-0.533-0.218-1.11-0.324-1.661-0.508c-1.853-0.629-3.658-1.346-5.618-1.772
			c-1.81-0.392-3.685-0.623-5.611-0.772c-1.7-0.194-3.398-0.387-5.097-0.582c-0.717-0.004-1.433-0.007-2.15-0.009
			C685.046,250.656,683.97,250.616,682.819,250.616"/>
		<path fill="#F06D9B" d="M727.289,304.003c-0.224,0.271-0.537,0.437-0.822,0.613c-0.704,0.439-1.469,0.745-2.156,1.226
			c-1.581,1.11-3.068,2.567-4.319,4.08c-0.507,0.606-0.921,1.261-1.366,1.894c-0.096,0.136-0.386,0.347-0.421,0.486
			c-0.001,0.013-0.001,0.027-0.002,0.042c0.023,0.177,0.353,0.14,0.487,0.14c0.099-0.047,0.274-0.041,0.398-0.041
			c0.104-0.047,0.268-0.039,0.397-0.039c0.247-0.154,0.6-0.239,0.916-0.239c0.155-0.071,0.409-0.039,0.597-0.039
			c0.138-0.086,0.339-0.119,0.518-0.119c0.234-0.119,0.784-0.019,1.072-0.058c0.281-0.034,0.518-0.182,0.838-0.182
			c0.232-0.106,1.143-0.04,1.473-0.04c0.079-0.014,0.159-0.025,0.24-0.039c0.079-0.014,0.158-0.027,0.238-0.041
			c0.079-0.015,0.159-0.026,0.239-0.039c0.125-0.082,0.312-0.119,0.477-0.119c0.251-0.116,0.948-0.042,1.274-0.042
			c0.081-0.013,0.159-0.025,0.239-0.039c0.13-0.033,0.26-0.067,0.39-0.102c0.478-0.139,0.991-0.336,1.522-0.336
			c0.08-0.014,0.16-0.025,0.238-0.039c0.093-0.014,0.188-0.028,0.279-0.039c0.107-0.013,0.214-0.029,0.319-0.04
			c0.152-0.065,0.376-0.042,0.558-0.042c0.079-0.014,0.159-0.025,0.239-0.039c0.079-0.014,0.159-0.026,0.239-0.04
			c0.08-0.016,0.158-0.028,0.239-0.039c0.238-0.172,0.73-0.328,0.772-0.681c0.138-1.202-2.951-4.194-3.907-5.065
			C728.164,304.645,727.705,304.1,727.289,304.003"/>
		<path fill="#FFFFFF" d="M702.088,312.007c-0.861,0.192-1.722,0.383-2.583,0.574c-2.104,0.553-4.256,1.294-5.887,2.78
			c-0.814,0.743-1.462,1.619-2.061,2.483c-0.367,0.529-0.744,1.031-1.075,1.582c-1.027,1.693-1.719,3.528-2.023,5.598
			c-0.103,0.691-0.148,1.511-0.053,2.228c0.136,1.041,0.362,1.946,0.694,2.874c0.407,1.138,0.875,2.211,1.81,3.089
			c0.573,0.536,1.367,0.466,2.136,0.621c0.656,0.132,1.246,0.42,1.78,0.804c0.345,0.252,0.686,0.652,0.966,0.979
			c0.1,0.113,0.2,0.221,0.298,0.332c0.13,0.246,0.259,0.492,0.388,0.737c0.247,0.455,0.578,0.829,1.005,1.137
			c1.184,0.854,2.563,1.31,3.919,1.832c2.576,0.99,5.286,1.84,8.21,2.118c0.756,0.004,1.513,0.008,2.269,0.012
			c0.465,0.013,0.928,0.023,1.392,0.036c0.274-0.012,0.473-0.116,0.758-0.116c0.222-0.101,0.788-0.041,1.074-0.041
			c0.252-0.056,0.503-0.114,0.753-0.17c0.27-0.061,0.505-0.143,0.749-0.249c1.781-0.776,3.587-2.123,4.731-3.813
			c0.581-0.861,0.786-1.887,1.1-2.893c0.21-0.684,0.404-1.381,0.536-2.114c0.671-3.72-0.069-7.759-1.636-10.738
			c-0.619-1.175-1.535-2.244-2.397-3.286c-0.8-0.965-1.675-2.029-2.697-2.796c-0.588-0.442-1.286-0.7-1.928-1.031
			C710.742,312.743,706.594,312.007,702.088,312.007"/>
		<path fill="#634339" d="M697.191,318.577c1.15,0,2.254,0.012,3.089,0.615c1.332,0.964,1.194,3.735-0.234,4.54
			c-2.073,1.168-4.487,0.088-4.487-2.409c0-0.674,0.167-1.296,0.513-1.794C696.357,319.118,696.806,318.863,697.191,318.577"/>
		<path fill="#634339" d="M703.442,323.992c4.171,0,8.206,1.731,9.673,5.573c0.939,2.462,0.56,6.53-1.764,7.94
			c-4.247,2.567-12.04,0.712-13.755-4c-0.535-1.475-0.444-2.805-0.058-4.302c0.144-0.559,0.185-1.244,0.439-1.754
			c0.744-1.49,2.293-2.24,3.705-2.836C702.269,324.406,702.856,324.199,703.442,323.992"/>
		<path fill="#FFEAC3" d="M670.756,324.03c-0.308,0.429-0.353,1.246-0.452,1.788c-0.212,1.143-0.423,2.285-0.636,3.426
			c-0.296,1.7-0.592,3.4-0.89,5.099c-0.185,1.41-0.191,2.846-0.215,4.338c-0.025,1.635-0.023,3.376,0.13,4.976
			c0.13,1.36,0.497,2.62,0.75,3.902c0.115,0.582,0.408,1.16,0.298,1.828c-0.263,1.571-2.74,2.535-3.994,3.049
			c-0.537,0.225-1.074,0.45-1.612,0.675c-0.331,0.136-1.07,0.358-1.157,0.784c-0.024,0.101-0.019,0.239,0.013,0.336
			c0.471,0.804,0.943,1.612,1.411,2.416c0.904,1.492,1.26,3.281,1.553,5.09c0.078,0.484,0.122,1.001,0.138,1.508
			c0.009,0.297-0.024,0.852,0.088,1.092c0.045,0.092,0.16,0.183,0.273,0.183c0.278-0.398,0.827-0.596,1.234-0.797
			c0.963-0.474,1.947-0.902,2.854-1.492c1.062-0.689,2.088-1.551,3.027-2.46c0.713-0.693,1.352-1.649,2.288-1.96
			c0.947-0.316,1.776,0.166,2.586,0.394c0.358,0.07,0.714,0.14,1.071,0.209c1.966,0.323,4.097,0.293,6.249,0.293
			c0.582,0,1.147,0.039,1.752,0.039c0.081-0.014,0.16-0.025,0.239-0.039c0.169-0.118,0.448-0.18,0.521-0.41
			c0.065-0.213,0-0.462-0.034-0.667c-0.121-0.598-0.244-1.194-0.365-1.791c-0.04-0.222-0.052-0.566-0.179-0.742
			c-0.031-0.045-0.086-0.103-0.144-0.102c-0.07,0.002-0.127,0.061-0.165,0.113c-0.092,0.191-0.182,0.382-0.273,0.572
			c-0.185,0.369-0.438,0.701-0.747,1.003c-0.892,0.862-2.574,1.49-3.733,0.685c-0.204-0.143-0.361-0.366-0.514-0.556
			c-0.249-0.31-0.517-0.574-0.716-0.905c-1.266-2.092-0.266-4.4,0.746-6.229c0.241-0.437,0.523-0.854,0.804-1.268
			c0.169-0.223,0.338-0.449,0.505-0.671c0.024-0.048,0.036-0.113,0.025-0.169c-0.042-0.2-1.446-0.759-1.709-0.919
			c-1.459-0.882-2.981-2.027-4.117-3.446c-0.593-0.739-1.201-1.447-1.713-2.226c-0.742-1.125-1.427-2.293-1.907-3.542
			c-0.177-0.457-0.321-0.916-0.478-1.378c-0.356-1.034-0.867-2.873,0.895-2.873c0.15-0.065,0.365-0.019,0.515,0.007
			c1.281,0.205,1.798,2.217,2.147,3.259c0.144,0.435,0.33,0.844,0.569,1.228c0.218,0.381,0.437,0.764,0.653,1.143
			c0.253,0.302,0.506,0.604,0.759,0.906c0.341,0.385,0.654,0.789,1.016,1.175c2.584,2.751,4.949,4.467,8.992,4.467
			c0.079-0.014,0.159-0.026,0.239-0.039c0.079-0.016,0.159-0.029,0.238-0.042c0.289-0.114,0.578-0.224,0.867-0.336
			c0.69-0.269,1.359-0.548,1.947-1.031c0.987-0.821,1.964-2.157,1.834-3.529c-0.059-0.607-0.229-1.106-0.429-1.634
			c-0.224-0.585-0.508-1.163-1.05-1.57c-0.768-0.576-1.869-0.459-2.815-0.684c-1.599-0.378-3.01-1.063-4.182-2.275
			c-0.437-0.449-0.773-0.94-1.116-1.436c-0.587-0.846-1.797-3.095-0.889-4.091c0.36-0.399,0.956-0.4,1.339-0.77
			c0.253-0.247,0.468-1.393,0.106-1.619c-0.181-0.113-1.033-0.123-1.304-0.139c-0.85-0.052-1.691-0.216-2.509-0.359
			c-0.956-0.179-1.911-0.36-2.869-0.543c-1.299-0.193-2.598-0.387-3.898-0.582C673.331,324.474,672.043,324.252,670.756,324.03"/>
		<path fill="#F6921E" d="M704,327.055c-0.336,0.245-0.803,0.413-1.203,0.536c-0.179,0.045-0.358,0.09-0.537,0.135
			c-0.059,0.024-0.111,0.079-0.137,0.137c-0.024,0.05,0.021,0.109,0.05,0.141c0.162,0.191,0.481,0.253,0.701,0.344
			c0.336,0.154,0.67,0.306,1.004,0.459c0.856,0.426,1.691,0.894,2.558,1.339c0.815,0.417,1.673,0.723,2.414,1.294
			c0.254,0.196,0.556,0.368,0.851,0.489c0.167,0.069,0.349,0.096,0.5,0.194c0.034,0.021,0.048,0.016,0.048,0.069h0.039v-0.039
			c0.422-0.424-0.35-1.911-0.632-2.275C708.294,328.111,706.283,327.128,704,327.055"/>
		<path fill="#634339" d="M716.461,328.727c1.117,0,2.199,0.094,3.008,0.697c0.31,0.235,0.505,0.623,0.62,0.972
			c0.466,1.426-0.166,3.199-1.527,3.724c-0.436,0.167-0.959,0.242-1.465,0.187c-2.204-0.244-2.894-2.681-1.906-4.503
			C715.534,329.171,715.968,329.138,716.461,328.727"/>
		<path fill="#F6921E" d="M700.416,330.798c-0.175,0.379,0.022,0.969,0.143,1.321c0.815,2.381,4.078,3.497,6.545,3.497
			c0.081-0.015,0.16-0.026,0.238-0.041c0.081-0.014,0.16-0.025,0.24-0.038c0.22-0.122,1.047-0.295,0.985-0.63
			c-0.015-0.08-0.095-0.154-0.16-0.194c-0.155-0.071-0.31-0.142-0.468-0.213c-0.41-0.203-0.829-0.42-1.221-0.657
			c-0.607-0.367-1.232-0.655-1.874-0.951c-0.717-0.345-1.433-0.692-2.149-1.036c-0.417-0.202-0.835-0.403-1.252-0.606
			C701.111,331.078,700.784,330.897,700.416,330.798"/>
		<path fill="#FFFFFF" d="M697.391,341.47c-0.296,0.463-0.307,1.084-0.461,1.623c-0.322,1.108-0.956,2.119-1.8,2.963
			c-0.763,0.761-1.837,1.044-2.756,1.506c-0.391,0.195-0.896,0.489-1.09,0.926c-0.277,0.619-0.285,1.371-0.353,2.099
			c-0.053,0.397-0.105,0.795-0.158,1.193c-0.535,4.809,1.818,8.598,6.341,9.502c0.613,0.123,1.324,0.233,1.988,0.204
			c0.237-0.009,0.428-0.111,0.678-0.111c0.234-0.104,0.674-0.038,0.955-0.038c0.456-0.318,1.346-0.469,1.905-0.617
			c1.261-0.332,2.348-0.851,3.235-1.887c1.287-1.51,1.915-3.248,2.212-5.262c0.058-0.407,0.061-0.808,0.101-1.232
			c0.04-0.415,0.006-0.862-0.007-1.273c-0.008-0.237,0.028-0.511-0.054-0.713c-0.201-0.482-0.878-0.829-1.24-1.145
			c-0.206-0.231-0.409-0.463-0.614-0.697c-0.25-0.291-0.503-0.549-0.665-0.88c-0.276-0.598-0.551-1.195-0.827-1.793
			c-0.203-0.525-0.097-1.401-0.561-1.758c-0.385-0.298-0.902-0.393-1.372-0.51c-0.251-0.084-0.501-0.165-0.752-0.248
			c-1.133-0.389-2.238-0.761-3.348-1.184C698.267,341.956,697.848,341.688,697.391,341.47"/>
		<path fill="#FFEAC3" d="M707.98,344.734c-0.145,0.267,0.002,0.527,0.142,0.767c0.462,0.801,1.186,1.52,2.041,1.87
			c0.483,0.197,0.993,0.19,1.559,0.19c0.144-0.049,0.286-0.093,0.43-0.141c0.238-0.08,0.456-0.19,0.671-0.319
			c0.301-0.185,0.56-0.469,0.819-0.728c0.377-0.405,0.755-0.808,1.132-1.214c0.046-0.055,0.109-0.188,0.173-0.188v-0.079
			c-0.358-0.233-1.187-0.119-1.672-0.119c-0.57,0-1.131,0.04-1.672,0.04c-0.558-0.016-1.115-0.028-1.672-0.04
			C709.291,344.773,708.578,344.831,707.98,344.734"/>
		<path fill="#FFEAC3" d="M715.903,348.714c-0.247,0.352-0.201,0.773-0.105,1.19c0.182,0.813,0.684,1.496,1.018,2.235
			c0.472,1.046,0.881,2.112,1.217,3.232c0.412,1.374,0.529,3.11,0.052,4.49c-0.158,0.454-0.425,0.998-0.825,1.314
			c-0.117,0.073-0.234,0.143-0.352,0.216c-0.065,0.042-0.149,0.118-0.13,0.2c0.043,0.205,1.07,0.144,1.316,0.144
			c0.198-0.083,0.52-0.04,0.756-0.04c0.118-0.056,0.298-0.04,0.439-0.04c0.106-0.013,0.213-0.027,0.318-0.04
			c0.093-0.014,0.187-0.025,0.278-0.039c0.212-0.056,0.424-0.113,0.635-0.17c0.598-0.176,1.167-0.431,1.641-0.859
			c2.365-2.155,2.542-7.172,0.181-9.391c-0.609-0.573-0.946-0.395-1.74-0.536c-0.53-0.147-1.058-0.295-1.589-0.443
			c-0.575-0.198-1.127-0.542-1.647-0.843C716.904,349.065,716.417,348.875,715.903,348.714"/>
		<path fill="#F497B0" d="M660.045,356.001c-0.22,0.359-0.118,1.004-0.118,1.472c0,1.699,0.256,3.173,0.914,4.539
			c0.114,0.233,0.227,0.468,0.343,0.7c0.322,0.391,0.642,0.786,0.964,1.179c0.091,0.107,0.437,0.588,0.566,0.588v-0.039
			c0.552-0.492,0.244-1.447,0.132-2.073c-0.111-0.61-0.212-1.203-0.336-1.789C662.159,358.942,661.29,357.163,660.045,356.001"/>
		<path fill="#FFEAC3" d="M710.17,357.992c-0.13,0.187-0.216,0.394-0.324,0.594c-0.111,0.206-0.631,0.934-0.631,1.115
			c-0.02,0.071,0.156,0.194,0.207,0.222c0.274,0.125,0.551,0.25,0.825,0.377c0.508,0.239,1.049,0.555,1.637,0.616
			c0.16,0.017,0.232-0.098,0.357-0.098c0-0.055,0.012-0.041-0.039-0.041c-0.174-0.357-0.532-0.629-0.754-0.957
			C711.055,359.241,710.834,358.366,710.17,357.992"/>
		<path fill="#FFDD00" d="M691.06,362.051c-0.563,0.752-0.674,1.71-0.848,2.666c-0.127,0.692-0.273,1.467-0.172,2.229
			c0.144,1.111,0.982,2.015,2.136,2.089c0.12-0.003,0.239-0.01,0.357-0.016c0.127-0.061,0.255-0.122,0.383-0.183
			c0.306-0.189,0.626-0.539,0.831-0.829c0.661-0.944,0.891-2.143,1.067-3.327c0.032-0.22,0.123-0.62-0.015-0.795
			c-0.2-0.251-0.62-0.314-0.903-0.422c-0.252-0.108-0.504-0.213-0.756-0.318C692.422,362.833,691.738,362.438,691.06,362.051"/>
		<path fill="#FFDD00" d="M706.11,362.729c-0.409,0.459-2.13,0.76-2.298,1.174c-0.096,0.23,0.072,0.8,0.108,1.054
			c0.194,1.362,0.659,2.883,2.023,3.443c0.174,0.071,0.401,0.182,0.606,0.182c0.294-0.355,0.599-0.444,0.804-0.911
			C707.889,366.433,707.021,363.526,706.11,362.729"/>
		<g>
			<g>
				<defs>
					<path id="SVGID_8_" d="M670.756,324.03c-0.308,0.429-0.353,1.246-0.452,1.788c-0.212,1.143-0.423,2.285-0.636,3.426
						c-0.296,1.7-0.592,3.4-0.89,5.099c-0.185,1.41-0.191,2.846-0.215,4.338c-0.025,1.635-0.023,3.376,0.13,4.976
						c0.13,1.36,0.497,2.62,0.75,3.902c0.115,0.582,0.408,1.16,0.298,1.828c-0.263,1.571-2.74,2.535-3.994,3.049
						c-0.537,0.225-1.074,0.45-1.612,0.675c-0.331,0.136-1.07,0.358-1.157,0.784c-0.024,0.101-0.019,0.239,0.013,0.336
						c0.471,0.804,0.943,1.612,1.411,2.416c0.904,1.492,1.26,3.281,1.553,5.09c0.078,0.484,0.122,1.001,0.138,1.508
						c0.009,0.297-0.024,0.852,0.088,1.092c0.045,0.092,0.16,0.183,0.273,0.183c0.278-0.398,0.827-0.596,1.234-0.797
						c0.963-0.474,1.947-0.902,2.854-1.492c1.062-0.689,2.088-1.551,3.027-2.46c0.713-0.693,1.352-1.649,2.288-1.96
						c0.947-0.316,1.776,0.166,2.586,0.394c0.358,0.07,0.714,0.14,1.071,0.209c1.966,0.323,4.097,0.293,6.249,0.293
						c0.582,0,1.147,0.039,1.752,0.039c0.081-0.014,0.16-0.025,0.239-0.039c0.169-0.118,0.448-0.18,0.521-0.41
						c0.065-0.213,0-0.462-0.034-0.667c-0.121-0.598-0.244-1.194-0.365-1.791c-0.04-0.222-0.052-0.566-0.179-0.742
						c-0.031-0.045-0.086-0.103-0.144-0.102c-0.07,0.002-0.127,0.061-0.165,0.113c-0.092,0.191-0.182,0.382-0.273,0.572
						c-0.185,0.369-0.438,0.701-0.747,1.003c-0.892,0.862-2.574,1.49-3.733,0.685c-0.204-0.143-0.361-0.366-0.514-0.556
						c-0.249-0.31-0.517-0.574-0.716-0.905c-1.266-2.092-0.266-4.4,0.746-6.229c0.241-0.437,0.523-0.854,0.804-1.268
						c0.169-0.223,0.338-0.449,0.505-0.671c0.024-0.048,0.036-0.113,0.025-0.169c-0.042-0.2-1.446-0.759-1.709-0.919
						c-1.459-0.882-2.981-2.027-4.117-3.446c-0.593-0.739-1.201-1.447-1.713-2.226c-0.742-1.125-1.427-2.293-1.907-3.542
						c-0.177-0.457-0.321-0.916-0.478-1.378c-0.356-1.034-0.867-2.873,0.895-2.873c0.15-0.065,0.365-0.019,0.515,0.007
						c1.281,0.205,1.798,2.217,2.147,3.259c0.144,0.435,0.33,0.844,0.569,1.228c0.218,0.381,0.437,0.764,0.653,1.143
						c0.253,0.302,0.506,0.604,0.759,0.906c0.341,0.385,0.654,0.789,1.016,1.175c2.584,2.751,4.949,4.467,8.992,4.467
						c0.079-0.014,0.159-0.026,0.239-0.039c0.079-0.016,0.159-0.029,0.238-0.042c0.289-0.114,0.578-0.224,0.867-0.336
						c0.69-0.269,1.359-0.548,1.947-1.031c0.987-0.821,1.964-2.157,1.834-3.529c-0.059-0.607-0.229-1.106-0.429-1.634
						c-0.224-0.585-0.508-1.163-1.05-1.57c-0.768-0.576-1.869-0.459-2.815-0.684c-1.599-0.378-3.01-1.063-4.182-2.275
						c-0.437-0.449-0.773-0.94-1.116-1.436c-0.587-0.846-1.797-3.095-0.889-4.091c0.36-0.399,0.956-0.4,1.339-0.77
						c0.253-0.247,0.468-1.393,0.106-1.619c-0.181-0.113-1.033-0.123-1.304-0.139c-0.85-0.052-1.691-0.216-2.509-0.359
						c-0.956-0.179-1.911-0.36-2.869-0.543c-1.299-0.193-2.598-0.387-3.898-0.582C673.331,324.474,672.043,324.252,670.756,324.03"
						/>
				</defs>
				<clipPath id="SVGID_9_">
					<use xlink:href="#SVGID_8_"  overflow="visible"/>
				</clipPath>
				<path clip-path="url(#SVGID_9_)" fill="#FFFFFF" d="M675.115,338.017c0.159,1.796-0.561,3.647-0.708,5.442
					c-0.125,1.645,0.136,3.271,0.564,4.82c0.725,2.595,2.345,5.697,5.411,5.955c1.833,0.157,2.35-1.462,3.163-3.021
					c0.924-1.76,2.892-3.769,1.399-5.656c-1.529-1.919-4.412-2.234-6.286-3.666c-1.218-0.943-1.881-2.469-3.117-3.409
					c-0.212-0.169-0.474-0.338-0.703-0.465"/>
			</g>
		</g>
	</g>
	<g id="face">
		<path fill="#634339" d="M668.15,284.481c2.224,0,4.304,0.254,5.658,1.946c1.912,2.388,1.846,6.288-0.534,8.392
			c-0.62,0.546-1.371,0.891-2.157,1.114c-0.934,0.264-2.057,0.111-2.931-0.125c-2.719-0.738-4.032-2.245-4.216-5.185
			c-0.052-0.833-0.034-1.719,0.182-2.464c0.415-1.431,1.336-2.334,2.615-3.042C667.229,284.906,667.689,284.694,668.15,284.481"/>
		<path fill="#634339" d="M709.284,285.492c1.527,0.05,2.85,0.558,3.924,1.505c2.211,1.95,2.812,6.208,0.689,8.465
			c-0.786,0.836-1.819,1.339-2.932,1.538c-0.956,0.169-1.978,0.016-2.871-0.176c-2.298-0.5-3.586-1.362-4.144-3.716
			c-0.571-2.412,0.534-5.707,2.577-6.852c0.43-0.243,0.944-0.456,1.494-0.456c0.122-0.058,0.308-0.038,0.459-0.038
			c0.189-0.119,0.567-0.231,0.804-0.231L709.284,285.492L709.284,285.492z"/>
		<path fill="#FFFFFF" d="M693.57,310.865c-5.576,0.394-13.712,0.421-16.879-4.657c-1.818-2.905-2.096-5.809-0.304-8.853
			c2.299-3.906,4.818-5.191,9.211-6.263c4.607-1.118,9.878,0.009,13.413,2.871c2.929,2.364,5.448,8.871,3.279,12.531
			C700.5,309.499,696.849,310.618,693.57,310.865"/>
		<path fill="#634339" d="M687.591,292.654c0.908,0,1.818-0.035,2.609,0.17c1.962,0.497,3.152,2.389,2.775,4.513
			c-0.105,0.587-0.307,1.101-0.591,1.597c-0.14,0.239-0.698,0.764-0.698,1.017c0.232,0.171,0.371,0.409,0.541,0.629
			c0.203,0.251,0.406,0.506,0.608,0.761c0.906,1.175,4.116,4.469,2.681,5.95c-0.572,0.59-1.806,0.462-2.542,0.232
			c-0.382-0.118-0.711-0.354-1.101-0.444c-0.232-0.011-0.462-0.021-0.695-0.035c-0.835-0.038-1.751-0.006-2.614-0.033
			c-0.62-0.02-1.308-0.015-1.951-0.045c-0.638-0.031-1.274-0.065-1.912-0.099c-0.458,0.02-0.862,0.24-1.258,0.399
			c-0.678,0.27-1.527,0.216-2.084-0.23c-0.527-0.42-0.753-1.224-0.425-1.845c0.364-0.693,1.157-1.102,1.76-1.552
			c0.287-0.215,0.536-0.483,0.805-0.75c0.653-0.655,1.229-1.296,1.763-1.988c0.228-0.298,0.5-0.566,0.654-0.907
			c0.047-0.109,0.086-0.255,0.067-0.384c-0.089-0.199-0.177-0.395-0.266-0.595c-0.102-0.276-0.205-0.547-0.309-0.822
			C684.73,295.911,685.195,293.392,687.591,292.654"/>
		<path fill="#EC1C24" d="M688.723,301.435c-0.436,0.608-0.726,1.304-1.116,1.936c-0.029,0.043-0.071,0.132-0.134,0.132
			c0,0.051-0.012,0.039,0.038,0.039c0.275,0.294,1.435,0.194,1.914,0.194c0.166-0.092,0.404-0.097,0.466-0.322
			C689.999,303.017,689.058,301.632,688.723,301.435"/>
	</g>
	<g id="bowtie">
		<g>
			<path fill="#FFDD00" d="M570,268.109c0-2.75,1.949-3.875,4.33-2.5l13.257,7.654c2.382,1.375,2.382,3.625,0,5l-13.257,7.654
				c-2.382,1.375-4.33,0.25-4.33-2.5V268.109z"/>
			<path fill="none" stroke="#634339" stroke-width="5" stroke-miterlimit="10" d="M569.5,268.109c0-2.75,2.199-3.875,4.58-2.5
				l13.382,7.654c2.382,1.375,2.444,3.625,0.062,5l-13.476,7.654c-2.382,1.375-4.549,0.25-4.549-2.5L569.5,268.109L569.5,268.109z"
				/>
		</g>
		<g>
			<path fill="#FFDD00" d="M618,283.417c0,2.75-1.99,3.875-4.371,2.5l-13.278-7.654c-2.382-1.375-2.392-3.625-0.01-5l13.293-7.654
				c2.382-1.375,4.366-0.25,4.366,2.5L618,283.417L618,283.417z"/>
			<path fill="none" stroke="#634339" stroke-width="5" stroke-miterlimit="10" d="M617.5,283.417c0,2.75-1.74,3.875-4.121,2.5
				l-13.153-7.654c-2.382-1.375-2.329-3.625,0.052-5l13.075-7.654c2.382-1.375,4.148-0.25,4.148,2.5v15.308H617.5z"/>
		</g>
		<g>
			<path fill="#FFDD00" d="M601,278c0,2.75-2.25,5-5,5h-4c-2.75,0-5-2.25-5-5v-4c0-2.75,2.25-5,5-5h4c2.75,0,5,2.25,5,5V278z"/>
			<path fill="none" stroke="#634339" stroke-width="5" stroke-miterlimit="10" d="M600.5,278.5c0,2.761-2.239,5-5,5h-4
				c-2.761,0-5-2.239-5-5v-4c0-2.761,2.239-5,5-5h4c2.761,0,5,2.239,5,5V278.5z"/>
		</g>
	</g>
</g>
<g id="Logo">
	<text id="Strapline" transform="matrix(1 0 0 1 104.7515 202.63)" font-family="'Lobster1.4'" font-size="18">Illustration and animation studio</text>
	<g id="Dojo">
		<g>
			
				<text transform="matrix(1 0 0 1 70.6755 97)" fill="none" stroke="#634339" stroke-width="15" stroke-linecap="round" stroke-linejoin="round" stroke-miterlimit="10" font-family="'Lobster1.4'" font-size="96">Dojo</text>
			
				<text transform="matrix(1 0 0 1 70.6755 97)" fill="none" stroke="#FFFFFF" stroke-width="7" stroke-linecap="round" stroke-linejoin="round" stroke-miterlimit="10" font-family="'Lobster1.4'" font-size="96">Dojo</text>
		</g>
		<text transform="matrix(1 0 0 1 69.6755 96)" fill="#F06D9B" font-family="'Lobster1.4'" font-size="96">Dojo</text>
	</g>
	<g id="Designs">
		<g>
			
				<text transform="matrix(1 0 0 1 105.7513 161.5)" fill="none" stroke="#634339" stroke-width="15" stroke-linecap="round" stroke-linejoin="round" stroke-miterlimit="10" font-family="'Lobster1.4'" font-size="60">Designs</text>
			
				<text transform="matrix(1 0 0 1 105.7513 161.5)" fill="none" stroke="#FFFFFF" stroke-width="7" stroke-linecap="round" stroke-linejoin="round" stroke-miterlimit="10" font-family="'Lobster1.4'" font-size="60">Designs</text>
		</g>
		<text transform="matrix(1 0 0 1 104.7513 160.5)" fill="#F06D9B" font-family="'Lobster1.4'" font-size="60">Designs</text>
	</g>
</g>
<rect id="dog" x="536.203" y="185" fill="#377526" width="103.464" height="180.114"/>
<rect id="bear" x="651.287" y="237.077" fill="#377526" width="78.546" height="130.216"/>
<rect id="chick" x="743.133" y="192.497" fill="#377526" width="108.867" height="170.232"/>
</svg>
